<svg preserveAspectRatio="none" width="100%" height="100%" overflow="visible" style="display: block;" viewBox="0 0 64 64" fill="none" xmlns="http://www.w3.org/2000/svg">
<g id="Frame 2065069061">
<rect width="64" height="64" fill="#7c73fd" fill-opacity="0.02"/>
<path id="Subtract" d="M32.0883 20.2763C34.5865 20.263 36.9723 21.2694 38.7211 23.0654C40.4691 24.8608 41.439 27.299 41.4252 29.8408L41.3549 42.6797C41.3529 43.0431 41.1427 43.3757 40.8149 43.5361C40.4871 43.6963 40.099 43.6558 39.8149 43.4326L36.2172 40.6035L32.5444 43.4746C32.1991 43.7444 31.7159 43.7467 31.3745 43.4795L27.7622 40.6494L24.1049 43.5195C23.8179 43.7446 23.4283 43.7871 23.103 43.6299C22.7782 43.4725 22.5727 43.1428 22.5747 42.7803L22.645 29.9414C22.6592 27.3996 23.6565 24.9509 25.4243 23.1367C27.193 21.3218 29.5901 20.2898 32.0883 20.2763ZM35.0756 26.998C34.3075 26.9983 33.6778 27.6215 33.6694 28.3896C33.661 29.158 34.2779 29.7812 35.0463 29.7812H35.061C35.8292 29.7809 36.4589 29.1578 36.4672 28.3896C36.4755 27.6213 35.8586 26.9981 35.0903 26.998H35.0756ZM29.2866 26.8603C28.5184 26.8606 27.8887 27.4838 27.8803 28.2519C27.872 29.0203 28.4889 29.6435 29.2573 29.6435H29.2719C30.0401 29.6432 30.6698 29.0201 30.6782 28.2519C30.6865 27.4836 30.0696 26.8604 29.3012 26.8603H29.2866Z" fill="url(#paint0_linear_3518_60458)"/>
</g>
<defs>
<linearGradient id="paint0_linear_3518_60458" x1="37.6785" y1="18.4605" x2="25.1638" y2="47.5867" gradientUnits="userSpaceOnUse">
<stop stop-color="#5D55D2" stop-opacity="0.4"/>
<stop offset="1" stop-color="#5D55D2" stop-opacity="0.03"/>
</linearGradient>
</defs>
</svg>
