<svg preserveAspectRatio="none" width="100%" height="100%" overflow="visible" style="display: block;" viewBox="0 0 14 14" fill="none" xmlns="http://www.w3.org/2000/svg">
<g id="Logo and Title">
<path id="Union" d="M5.24961 0.7C5.44284 0.7 5.59911 0.8564 5.59922 1.04961V2.09941H8.4V1.04961C8.40011 0.856399 8.55637 0.7 8.74961 0.7H10.15C10.3431 0.700211 10.4995 0.85653 10.4996 1.04961V2.09941H11.9C12.2863 2.09963 12.6 2.41332 12.6002 2.79961V11.8992L12.5855 12.0408C12.5295 12.314 12.3139 12.5288 12.0406 12.5848L11.9 12.5994H2.1002L1.95859 12.5848C1.63982 12.5193 1.4 12.2374 1.4 11.8992V2.79961C1.40018 2.46165 1.63994 2.17946 1.95859 2.11406L2.1002 2.09941H3.49961V1.04961C3.49971 0.85653 3.65616 0.700211 3.84922 0.7H5.24961ZM9.09922 8.4002C8.71306 8.40041 8.40042 8.7133 8.4 9.09941V10.1502C8.40021 10.3433 8.55644 10.4998 8.74961 10.4998H10.15C10.3428 10.4994 10.4994 10.3431 10.4996 10.1502V9.09941C10.4992 8.7133 10.1856 8.40041 9.79941 8.4002H9.09922ZM2.52012 5.59941H11.4801V3.21953H10.4928C10.4605 3.37931 10.3193 3.49962 10.15 3.4998H8.74961C8.58021 3.4998 8.43918 3.3794 8.40684 3.21953H5.59238C5.56004 3.3794 5.41901 3.4998 5.24961 3.4998H3.84922C3.67996 3.49962 3.53874 3.37931 3.50645 3.21953H2.52012V5.59941Z" fill="var(--fill-0, #D9D9D9)"/>
</g>
</svg>
