<svg preserveAspectRatio="none" width="100%" height="100%" overflow="visible" style="display: block;" viewBox="0 0 64 64" fill="none" xmlns="http://www.w3.org/2000/svg">
<g id="Frame 2065069060">
<rect width="64" height="64" fill="#7c73fd" fill-opacity="0.02"/>
<path id="Union" d="M39.7603 22C41.4928 22.0002 42.9386 23.3222 43.0942 25.0479L44.4585 40.1758C44.5467 41.1556 43.7753 41.9998 42.7915 42H37.5063C36.8916 42 36.3262 41.6628 36.0337 41.1221L34.9429 39.1055C34.7967 38.8352 34.5138 38.6671 34.2065 38.667H29.7944C29.4871 38.667 29.2044 38.8352 29.0581 39.1055L27.9663 41.1221C27.6739 41.6626 27.1092 41.9998 26.4946 42H21.2095C20.2256 42 19.4533 41.1557 19.5415 40.1758L20.9058 25.0479C21.0614 23.3221 22.5079 22 24.2407 22H39.7603ZM27.0435 29.5977H23.98V31.5977H27.0435V34.4287H29.0435V31.5977H32.106V29.5977H29.0435V26.7666H27.0435V29.5977ZM38.6147 30.5586C37.9925 30.5588 37.488 31.0245 37.4878 31.5996C37.4878 32.1748 37.9924 32.6414 38.6147 32.6416C39.2372 32.6416 39.7417 32.1749 39.7417 31.5996C39.7415 31.0244 39.2371 30.5586 38.6147 30.5586ZM35.9106 27.2236C35.2884 27.2239 34.7837 27.6905 34.7837 28.2656C34.7839 28.8406 35.2886 29.3064 35.9106 29.3066C36.533 29.3066 37.0383 28.8407 37.0386 28.2656C37.0386 27.6903 36.5331 27.2236 35.9106 27.2236Z" fill="url(#paint0_linear_3518_60432)"/>
</g>
<defs>
<linearGradient id="paint0_linear_3518_60432" x1="39.5101" y1="20.4513" x2="31.9361" y2="47.7827" gradientUnits="userSpaceOnUse">
<stop stop-color="#5D55D2" stop-opacity="0.4"/>
<stop offset="1" stop-color="#5D55D2" stop-opacity="0.03"/>
</linearGradient>
</defs>
</svg>
