<svg preserveAspectRatio="none" width="100%" height="100%" overflow="visible" style="display: block;" viewBox="0 0 17 17" fill="none" xmlns="http://www.w3.org/2000/svg">
<path id="233" d="M14.5 0C15.8807 0 17 1.11929 17 2.5V14.5C17 15.8807 15.8807 17 14.5 17H2.5C1.11929 17 0 15.8807 0 14.5V2.5C0 1.11929 1.11929 0 2.5 0H14.5ZM6.19727 6.8623C5.85478 6.11223 5.11485 5.80538 4.12402 5.91211C3.62143 5.96631 3.05518 6.11135 2.375 6.375V7.625C3.14854 7.29358 3.75874 7.10233 4.24512 7.0498C4.7927 6.99075 5.04878 7.09729 5.15918 7.33887C5.40845 7.88553 4.59571 8.80547 2.375 9.875V11H6L6.375 9.875H4.62988V9.8623C5.01723 9.60229 5.33708 9.34408 5.59082 9.08789C6.29714 8.37461 6.53637 7.60544 6.19727 6.8623ZM6.5 5.875L6.875 7H8.9375C9.16646 7.00844 9.33374 7.23086 9.33398 7.46191C9.33386 7.69844 9.11151 7.875 8.875 7.875H7.125L7.25 9H8.92188C9.15092 9.00853 9.33394 9.23074 9.33398 9.46191C9.33376 9.69835 9.11145 9.875 8.875 9.875H6.875L6.5 11H8.875C9.7304 10.9861 10.4999 10.3588 10.5 9.5C10.5 9.12033 10.3492 8.77154 10.125 8.5C10.3492 8.22844 10.4999 7.84157 10.5 7.46191C10.4997 6.59453 9.76181 5.875 8.89453 5.875H6.5ZM10.5 5.875L10.875 7H12.9375C13.1665 7.00844 13.3337 7.23086 13.334 7.46191C13.3339 7.69844 13.174 7.875 12.9375 7.875H11.125L11.25 9H12.9219C13.1509 9.00853 13.3339 9.23074 13.334 9.46191C13.3338 9.69836 13.1115 9.875 12.875 9.875H10.875L10.5 11H12.9014C13.7566 10.9859 14.4999 10.3587 14.5 9.5C14.4999 9.12033 14.3492 8.77154 14.125 8.5C14.3492 8.22844 14.4999 7.84157 14.5 7.46191C14.4997 6.59454 13.7618 5.875 12.8945 5.875H10.5Z" fill="var(--fill-0, white)" fill-opacity="0.25"/>
</svg>
