<svg preserveAspectRatio="none" width="100%" height="100%" overflow="visible" style="display: block;" viewBox="0 0 64 64" fill="none" xmlns="http://www.w3.org/2000/svg">
<g id="Frame 2065069058">
<rect width="64" height="64" fill="#7c73fd" fill-opacity="0.05"/>
<path id="Union" d="M26.144 21.4065C37.581 17.3529 40.163 30.7728 38.5786 38.9095L39.4702 38.9241C40.5627 38.9417 41.535 39.6211 41.9272 40.6409L42.9653 43.3392H21.0347L22.0679 40.4593C22.3877 39.5679 23.1468 38.9264 24.0474 38.7405C24.5242 37.9251 26.471 36.3869 27.8647 35.2962C31.5207 32.435 32.1152 30.0056 31.5181 29.3421L27.8647 31.43C26.9963 31.9262 25.907 31.809 25.1636 31.1399C24.3444 30.4025 24.1577 29.1901 24.7173 28.2405L27.4712 23.5696L26.144 21.4065Z" fill="url(#paint0_linear_3518_60467)"/>
</g>
<defs>
<linearGradient id="paint0_linear_3518_60467" x1="38.6063" y1="18.9048" x2="28.0347" y2="48.4998" gradientUnits="userSpaceOnUse">
<stop stop-color="#5D55D2" stop-opacity="0.4"/>
<stop offset="1" stop-color="#5D55D2" stop-opacity="0.03"/>
</linearGradient>
</defs>
</svg>
