<svg preserveAspectRatio="none" width="100%" height="100%" overflow="visible" style="display: block;" viewBox="0 0 25.9286 11" fill="none" xmlns="http://www.w3.org/2000/svg">
<g id="&#229;&#155;&#190;&#229;&#177;&#130; 1" clip-path="url(#clip0_3505_137904)">
<path id="&#232;&#183;&#175;&#229;&#190;&#132;" d="M10.1626 6.66223L9.87148 4.33926H13.6436C13.8745 4.34359 14.0977 4.25601 14.264 4.09579C14.4304 3.93556 14.5263 3.71581 14.5306 3.48488C14.535 3.25395 14.4474 3.03076 14.2871 2.8644C14.1269 2.69805 13.9072 2.60215 13.6762 2.59782H9.29184L8.71094 0.274848H13.6467C14.2523 0.275033 14.8454 0.447371 15.3568 0.771769C15.8682 1.09617 16.2768 1.55926 16.5351 2.10704C16.7933 2.65483 16.8905 3.26474 16.8153 3.86567C16.7402 4.46659 16.4957 5.03376 16.1105 5.50106C16.4929 5.96482 16.7366 6.52708 16.8137 7.1232C16.8908 7.71931 16.7981 8.32508 16.5462 8.87086C16.2944 9.41663 15.8936 9.88026 15.3901 10.2084C14.8865 10.5366 14.3005 10.716 13.6995 10.726H8.71094L9.29184 8.40367H13.6467C13.8776 8.408 14.1008 8.32042 14.2672 8.1602C14.4335 7.99997 14.5294 7.78022 14.5338 7.54929C14.5381 7.31836 14.4505 7.09517 14.2903 6.92881C14.1301 6.76245 13.9103 6.66656 13.6794 6.66223H10.1626Z" fill="var(--fill-0, white)" fill-opacity="0.25"/>
<path id="&#232;&#183;&#175;&#229;&#190;&#132;&#229;&#164;&#135;&#228;&#187;&#189;" d="M18.8729 6.66223L18.5825 4.33926H22.3546C22.5855 4.34359 22.8087 4.25601 22.975 4.09579C23.1414 3.93556 23.2373 3.71581 23.2416 3.48488C23.246 3.25395 23.1584 3.03076 22.9982 2.8644C22.8379 2.69805 22.6182 2.60215 22.3872 2.59782H18.0016L17.4213 0.274848H22.3564C22.9621 0.275033 23.5551 0.447371 24.0665 0.771769C24.5779 1.09617 24.9866 1.55926 25.2448 2.10704C25.5031 2.65483 25.6003 3.26474 25.5251 3.86567C25.4499 4.46659 25.2055 5.03376 24.8202 5.50106C25.2026 5.96482 25.4464 6.52708 25.5234 7.1232C25.6005 7.71931 25.5078 8.32508 25.256 8.87086C25.0041 9.41663 24.6034 9.88026 24.0998 10.2084C23.5962 10.5366 23.0102 10.716 22.4093 10.726H17.4213L18.0016 8.40367H22.3564C22.4708 8.40581 22.5844 8.38542 22.6909 8.34364C22.7974 8.30187 22.8946 8.23953 22.9769 8.1602C23.0593 8.08086 23.1252 7.98608 23.171 7.88126C23.2167 7.77644 23.2414 7.66364 23.2435 7.54929C23.2457 7.43495 23.2253 7.3213 23.1835 7.21484C23.1417 7.10837 23.0794 7.01118 23 6.92881C22.9207 6.84644 22.8259 6.7805 22.7211 6.73476C22.6163 6.68902 22.5035 6.66437 22.3891 6.66223H18.8729Z" fill="var(--fill-0, white)" fill-opacity="0.25"/>
<path id="&#232;&#183;&#175;&#229;&#190;&#132;_2" d="M7.82006 2.24881C8.51161 3.75764 8.02438 5.32305 6.58785 6.7753C6.0715 7.29626 5.41977 7.82016 4.63266 8.34699L4.55282 8.3998H8.12309L7.54282 10.7259H0.000557893V8.27407C4.51699 6.10135 6.21756 4.32911 5.71022 3.2176C5.48578 2.7266 4.96712 2.51034 3.85184 2.63042C2.86293 2.73729 1.57225 3.12581 0.000557893 3.79976V1.28504C1.38365 0.751295 2.58191 0.426896 3.60352 0.316878C5.61906 0.0993548 7.12412 0.723633 7.82006 2.24881Z" fill="var(--fill-0, white)" fill-opacity="0.25"/>
</g>
<defs>
<clipPath id="clip0_3505_137904">
<rect width="25.9286" height="11" fill="#7c73fd"/>
</clipPath>
</defs>
</svg>
