<svg preserveAspectRatio="none" width="100%" height="100%" overflow="visible" style="display: block;" viewBox="0 0 20 20" fill="none" xmlns="http://www.w3.org/2000/svg">
<g id="Logo and Title">
<path id="Subtract" d="M15.8945 3.44727C16.4144 3.44748 16.8474 3.84611 16.8906 4.36426L17.8799 16.2393C17.9042 16.5308 17.6744 16.7812 17.3818 16.7812H13.2344C13.045 16.7812 12.8718 16.6733 12.7871 16.5039L11.9521 14.835C11.8674 14.6656 11.6943 14.5586 11.5049 14.5586H8.79004C8.60067 14.5586 8.42748 14.6656 8.34277 14.835L7.50781 16.5039C7.42312 16.6733 7.24993 16.7812 7.06055 16.7812H2.91309C2.62057 16.7812 2.39075 16.5308 2.41504 16.2393L3.4043 4.36426C3.44748 3.84612 3.88051 3.44751 4.40039 3.44727H15.8945ZM7.01367 6.59961V8.4873H5.12598V9.87207H7.01367V11.7588H8.39844V9.87207H10.2852V8.4873H8.39844V6.59961H7.01367ZM14.2227 9.15332C13.8393 9.15356 13.5283 9.46426 13.5283 9.84766C13.529 10.2304 13.8398 10.5418 14.2227 10.542C14.6057 10.5419 14.9172 10.2305 14.918 9.84766C14.918 9.46417 14.6061 9.15342 14.2227 9.15332ZM14.2236 9.8457L14.2256 9.84668V9.84766L14.2236 9.84961H14.2227L14.2207 9.84766V9.84668L14.2227 9.8457H14.2236ZM12.5566 6.92969C12.1731 6.92969 11.8623 7.24048 11.8623 7.62402C11.8629 8.0071 12.1734 8.31836 12.5566 8.31836C12.9397 8.31814 13.2504 8.00697 13.251 7.62402C13.251 7.24061 12.94 6.9299 12.5566 6.92969ZM12.5576 7.62207L12.5586 7.62305V7.62402L12.5566 7.62598H12.5557L12.5547 7.62402V7.62207H12.5576Z" fill="var(--fill-0, #D9D9D9)"/>
</g>
</svg>
