<svg preserveAspectRatio="none" width="100%" height="100%" overflow="visible" style="display: block;" viewBox="0 0 91 91" fill="none" xmlns="http://www.w3.org/2000/svg">
<g id="Frame 2065068919" filter="url(#filter0_d_3518_60491)">
<rect x="30.5" y="20.5" width="30" height="30" rx="4" fill="url(#paint0_linear_3518_60491)" shape-rendering="crispEdges"/>
<rect x="30.25" y="20.25" width="30.5" height="30.5" rx="4.25" stroke="url(#paint1_linear_3518_60491)" stroke-width="0.5" shape-rendering="crispEdges"/>
<rect x="30.25" y="20.25" width="30.5" height="30.5" rx="4.25" stroke="url(#paint2_radial_3518_60491)" stroke-width="0.5" shape-rendering="crispEdges"/>
<g id="Union">
</g>
<g id="Star 31">
<path d="M45.0516 27.6585C45.235 27.2869 45.765 27.2869 45.9484 27.6585L48.0287 31.8737C48.1015 32.0213 48.2423 32.1236 48.4052 32.1472L53.0569 32.8232C53.467 32.8828 53.6308 33.3867 53.334 33.676L49.968 36.9571C49.8501 37.072 49.7964 37.2375 49.8242 37.3997L50.6188 42.0326C50.6889 42.4411 50.2601 42.7526 49.8933 42.5597L45.7327 40.3723C45.587 40.2957 45.413 40.2957 45.2673 40.3723L41.1067 42.5597C40.7399 42.7526 40.3111 42.4411 40.3812 42.0326L41.1758 37.3997C41.2036 37.2375 41.1499 37.072 41.032 36.9571L37.666 33.676C37.3692 33.3867 37.533 32.8828 37.9431 32.8232L42.5948 32.1472C42.7577 32.1236 42.8985 32.0213 42.9713 31.8737L45.0516 27.6585Z" fill="var(--fill-0, white)"/>
<path d="M45.0516 27.6585C45.235 27.2869 45.765 27.2869 45.9484 27.6585L48.0287 31.8737C48.1015 32.0213 48.2423 32.1236 48.4052 32.1472L53.0569 32.8232C53.467 32.8828 53.6308 33.3867 53.334 33.676L49.968 36.9571C49.8501 37.072 49.7964 37.2375 49.8242 37.3997L50.6188 42.0326C50.6889 42.4411 50.2601 42.7526 49.8933 42.5597L45.7327 40.3723C45.587 40.2957 45.413 40.2957 45.2673 40.3723L41.1067 42.5597C40.7399 42.7526 40.3111 42.4411 40.3812 42.0326L41.1758 37.3997C41.2036 37.2375 41.1499 37.072 41.032 36.9571L37.666 33.676C37.3692 33.3867 37.533 32.8828 37.9431 32.8232L42.5948 32.1472C42.7577 32.1236 42.8985 32.0213 42.9713 31.8737L45.0516 27.6585Z" fill="url(#paint3_linear_3518_60491)" fill-opacity="0.6"/>
</g>
</g>
<defs>
<filter id="filter0_d_3518_60491" x="0" y="0" width="91" height="91" filterUnits="userSpaceOnUse" color-interpolation-filters="sRGB">
<feFlood flood-opacity="0" result="BackgroundImageFix"/>
<feColorMatrix in="SourceAlpha" type="matrix" values="0 0 0 0 0 0 0 0 0 0 0 0 0 0 0 0 0 0 127 0" result="hardAlpha"/>
<feOffset dy="10"/>
<feGaussianBlur stdDeviation="15"/>
<feComposite in2="hardAlpha" operator="out"/>
<feColorMatrix type="matrix" values="0 0 0 0 0 0 0 0 0 0 0 0 0 0 0 0 0 0 0.55 0"/>
<feBlend mode="normal" in2="BackgroundImageFix" result="effect1_dropShadow_3518_60491"/>
<feBlend mode="normal" in="SourceGraphic" in2="effect1_dropShadow_3518_60491" result="shape"/>
</filter>
<linearGradient id="paint0_linear_3518_60491" x1="45.5" y1="20.5" x2="45.5" y2="50.5" gradientUnits="userSpaceOnUse">
<stop stop-color="white" stop-opacity="0.25"/>
<stop offset="1" stop-color="white" stop-opacity="0.1"/>
</linearGradient>
<linearGradient id="paint1_linear_3518_60491" x1="45.5" y1="27.2187" x2="45.5" y2="49.0938" gradientUnits="userSpaceOnUse">
<stop stop-color="white" stop-opacity="0.2"/>
<stop offset="1" stop-color="white" stop-opacity="0.05"/>
</linearGradient>
<radialGradient id="paint2_radial_3518_60491" cx="0" cy="0" r="1" gradientUnits="userSpaceOnUse" gradientTransform="translate(45.5 20.25) rotate(90) scale(15 11.3494)">
<stop stop-color="white" stop-opacity="0.7"/>
<stop offset="1" stop-color="white" stop-opacity="0"/>
</radialGradient>
<linearGradient id="paint3_linear_3518_60491" x1="36.5" y1="35.75" x2="48.7172" y2="47.4581" gradientUnits="userSpaceOnUse">
<stop stop-color="white"/>
<stop offset="0.423148" stop-color="#AF80FF"/>
<stop offset="0.53854" stop-color="#6F84F0"/>
<stop offset="1" stop-color="white"/>
</linearGradient>
</defs>
</svg>
